<?xml version="1.0" encoding="UTF-8" standalone="no"?>
<!-- Created with Inkscape (http://www.inkscape.org/) -->

<svg
   xmlns:osb="http://www.openswatchbook.org/uri/2009/osb"
   xmlns:dc="http://purl.org/dc/elements/1.1/"
   xmlns:cc="http://creativecommons.org/ns#"
   xmlns:rdf="http://www.w3.org/1999/02/22-rdf-syntax-ns#"
   xmlns:svg="http://www.w3.org/2000/svg"
   xmlns="http://www.w3.org/2000/svg"
   xmlns:sodipodi="http://sodipodi.sourceforge.net/DTD/sodipodi-0.dtd"
   xmlns:inkscape="http://www.inkscape.org/namespaces/inkscape"
   width="498"
   height="775"
   id="svg2993"
   version="1.1"
   inkscape:version="0.48.4 r9939"
   sodipodi:docname="bolyde.svg"
   inkscape:export-filename="C:\Users\Florian\git\bolyde\assets\bolyde.png"
   inkscape:export-xdpi="90"
   inkscape:export-ydpi="90">
  <defs
     id="defs2995">
    <linearGradient
       id="linearGradient3786"
       osb:paint="solid">
      <stop
         style="stop-color:#3a70c9;stop-opacity:1;"
         offset="0"
         id="stop3788" />
    </linearGradient>
  </defs>
  <sodipodi:namedview
     id="base"
     pagecolor="#ffffff"
     bordercolor="#666666"
     borderopacity="1.0"
     inkscape:pageopacity="0.0"
     inkscape:pageshadow="2"
     inkscape:zoom="0.86690741"
     inkscape:cx="190.92899"
     inkscape:cy="585.8254"
     inkscape:current-layer="layer1"
     inkscape:document-units="px"
     showgrid="false"
     inkscape:snap-bbox="false"
     inkscape:window-width="1366"
     inkscape:window-height="705"
     inkscape:window-x="1912"
     inkscape:window-y="304"
     inkscape:window-maximized="1" />
  <metadata
     id="metadata2998">
    <rdf:RDF>
      <cc:Work
         rdf:about="">
        <dc:format>image/svg+xml</dc:format>
        <dc:type
           rdf:resource="http://purl.org/dc/dcmitype/StillImage" />
        <dc:title />
      </cc:Work>
    </rdf:RDF>
  </metadata>
  <g
     id="layer1"
     inkscape:label="Layer 1"
     inkscape:groupmode="layer"
     transform="translate(0,7)">
    <path
       style="fill:none;stroke:#d0dcf2;stroke-width:45;stroke-linecap:round;stroke-linejoin:round;stroke-miterlimit:4;stroke-opacity:1;stroke-dasharray:none;stroke-dashoffset:0;marker-start:none"
       d="m -547.53592,248.45136 c 1.32791,-8.01533 66.1577,-114.51363 116.94142,-63.86215 36.35481,36.26013 120.54193,104.50594 198.06594,25.0276 35.1729,-36.05968 123.1287,-61.63202 242.2862,57.01831 57.6383,57.39308 101.6227,56.80691 173.7746,-16.22537 74.2253,-75.13108 80.981,-67.88329 155.6568,6.14212 67.0698,66.48559 154.99036,22.07242 203.17136,-88.28426"
       id="path3012-1-0-9-4-8-7-15-2-2-1-61"
       inkscape:connector-curvature="0"
       sodipodi:nodetypes="csssssc" />
    <path
       style="fill:none;stroke:#b1c5e9;stroke-width:45;stroke-linecap:round;stroke-linejoin:round;stroke-miterlimit:4;stroke-opacity:1;stroke-dasharray:none;stroke-dashoffset:0;marker-start:none"
       d="m -539.17818,383.11908 c 1.32791,-8.01533 66.15771,-114.51362 116.94142,-63.86215 36.3548,36.26013 120.54192,104.50594 198.06593,25.0276 35.1729,-36.05968 123.1287,-61.63202 242.2862,57.01831 57.6383,57.39308 101.6227,56.80691 173.7746,-16.22537 74.2253,-75.13108 80.981,-67.88329 155.6568,6.14212 67.0698,66.48559 154.99033,22.07242 203.17133,-88.28426"
       id="path3012-1-0-9-4-8-7-15-2-2-5"
       inkscape:connector-curvature="0"
       sodipodi:nodetypes="csssssc" />
    <path
       style="fill:none;stroke:#c1d1ed;stroke-width:45;stroke-linecap:round;stroke-linejoin:round;stroke-miterlimit:4;stroke-opacity:1;stroke-dasharray:none;stroke-dashoffset:0;marker-start:none"
       d="m -542.22342,314.76226 c 1.32791,-8.01533 66.15771,-114.51362 116.94142,-63.86215 36.35481,36.26013 120.54193,104.50594 198.06594,25.0276 35.1729,-36.05968 123.1287,-61.63202 242.2862,57.01831 57.6383,57.39308 101.6227,56.80691 173.7746,-16.22537 74.2253,-75.13108 80.981,-67.88329 155.6568,6.14212 67.0698,66.48559 154.99026,22.07242 203.17126,-88.28426"
       id="path3012-1-0-9-4-8-7-15-2-2-1"
       inkscape:connector-curvature="0"
       sodipodi:nodetypes="csssssc" />
    <path
       style="fill:none;stroke:#a2bae4;stroke-width:45;stroke-linecap:round;stroke-linejoin:round;stroke-miterlimit:4;stroke-opacity:1;stroke-dasharray:none;stroke-dashoffset:0;marker-start:none"
       d="m -539.14182,459.55943 c 1.32791,-8.01533 66.15771,-114.51362 116.94142,-63.86215 36.3548,36.26013 120.54192,104.50594 198.06593,25.0276 35.1729,-36.05968 123.1287,-61.63202 242.2862,57.01831 57.6383,57.39308 101.6227,56.80691 173.7746,-16.22537 74.2253,-75.13108 80.981,-67.88329 155.6568,6.14212 67.0698,66.48559 154.99037,22.07242 203.17137,-88.28426"
       id="path3012-1-0-9-4-8-7-15-2-2"
       inkscape:connector-curvature="0"
       sodipodi:nodetypes="csssssc" />
    <path
       style="fill:none;stroke:#3265b8;stroke-width:50;stroke-linecap:round;stroke-linejoin:round;stroke-miterlimit:4;stroke-opacity:1;stroke-dasharray:none;stroke-dashoffset:0;marker-start:none"
       d="m -539.80727,609.26627 c 1.05187,-6.08304 59.72049,-69.45306 116.94143,-63.86215 51.1032,4.99316 120.5419,104.50594 198.06588,25.0276 35.17298,-36.05968 123.12878,-61.63202 242.28621,57.01831 57.63836,57.39308 101.62277,56.80691 173.7746,-16.22537 74.22533,-75.13108 80.98101,-67.88329 155.65685,6.14212 67.06978,66.48559 154.9904,22.07242 203.1714,-88.28426"
       id="path3012-1-0-9-4-8-76-1"
       inkscape:connector-curvature="0"
       sodipodi:nodetypes="csssssc" />
    <path
       style="fill:none;stroke:#3163b5;stroke-width:55;stroke-linecap:round;stroke-linejoin:round;stroke-miterlimit:4;stroke-opacity:1;stroke-dasharray:none;stroke-dashoffset:0;marker-start:none"
       d="m -535.72266,736.42749 c 1.05187,-6.08304 59.7205,-69.45306 116.94143,-63.86215 51.1032,4.99316 120.5419,104.50594 198.06587,25.0276 35.17298,-36.05968 123.12878,-61.63202 242.28621,57.01831 57.63836,57.39308 101.62277,56.80691 173.7746,-16.22537 74.22533,-75.13108 80.98101,-67.88329 155.65685,6.14212 67.06978,66.48559 154.9904,22.07242 203.1714,-88.28426"
       id="path3012-1-0-9-4-8-76-1-4"
       inkscape:connector-curvature="0"
       sodipodi:nodetypes="csssssc" />
    <path
       style="fill:none;stroke:#3366bb;stroke-width:45;stroke-linecap:round;stroke-linejoin:round;stroke-miterlimit:4;stroke-opacity:1;stroke-dasharray:none;stroke-dashoffset:0;marker-start:none"
       d="m -546.45106,506.45004 c 1.05187,-6.08304 59.72049,-69.45306 116.94142,-63.86215 51.10321,4.99316 120.54191,104.50594 198.06589,25.0276 35.17298,-36.05968 123.12878,-61.63202 242.28621,57.01831 57.63836,57.39308 101.62277,56.80691 173.7746,-16.22537 74.22533,-75.13108 80.98101,-67.88329 155.65685,6.14212 67.06978,66.48559 154.99039,22.07242 203.17139,-88.28426"
       id="path3012-1-0-9-4-8-76"
       inkscape:connector-curvature="0"
       sodipodi:nodetypes="csssssc" />
    <path
       style="fill:none;stroke:#3469be;stroke-width:40;stroke-linecap:round;stroke-linejoin:round;stroke-miterlimit:4;stroke-opacity:1;stroke-dasharray:none;stroke-dashoffset:0;marker-start:none"
       d="m -551.60817,424.48595 c 1.05187,-6.08304 59.7205,-69.45306 116.94143,-63.86215 51.1032,4.99316 120.5419,104.50594 198.06588,25.0276 35.17298,-36.05968 123.12878,-61.63202 242.28621,57.01831 57.63836,57.39308 101.62277,56.80691 173.7746,-16.22537 74.22533,-75.13108 80.98101,-67.88329 155.65685,6.14212 67.06977,66.48559 154.9904,22.07242 203.1714,-88.28426"
       id="path3012-1-0-9-4-8"
       inkscape:connector-curvature="0"
       sodipodi:nodetypes="csssssc" />
    <path
       style="fill:none;stroke:#366cc4;stroke-width:30;stroke-linecap:round;stroke-linejoin:round;stroke-miterlimit:4;stroke-opacity:1;stroke-dasharray:none;stroke-dashoffset:0;marker-start:none"
       d="m -537.1643,278.81452 c 1.32791,-8.01533 66.15771,-114.51362 116.94142,-63.86215 36.3548,36.26013 120.54192,104.50594 198.06593,25.0276 35.1729,-36.05968 123.1287,-61.63202 242.2862,57.01831 57.6383,57.39308 101.6227,56.80691 173.7746,-16.22537 74.2253,-75.13108 80.981,-67.88329 155.6568,6.14212 67.0698,66.48559 154.99055,22.07242 203.17155,-88.28426"
       id="path3012-1-0-9-4-8-7"
       inkscape:connector-curvature="0"
       sodipodi:nodetypes="csssssc" />
    <path
       style="fill:none;stroke:#356ac1;stroke-width:35;stroke-linecap:round;stroke-linejoin:round;stroke-miterlimit:4;stroke-opacity:1;stroke-dasharray:none;stroke-dashoffset:0;marker-start:none"
       d="m -551.15703,346.68605 c 1.32099,-7.96691 58.6371,-61.86935 116.94143,-63.86215 51.31659,-1.75396 120.54191,104.50594 198.06591,25.0276 35.1729,-36.05968 123.1287,-61.63202 242.2862,57.01831 57.6383,57.39308 101.6227,56.80691 173.7746,-16.22537 74.2253,-75.13108 80.981,-67.88329 155.6568,6.14212 67.0698,66.48559 154.99039,22.07242 203.17139,-88.28426"
       id="path3012-1-0-9-4-8-7-1"
       inkscape:connector-curvature="0"
       sodipodi:nodetypes="csssssc" />
    <path
       style="fill:none;stroke:#e0e8f6;stroke-width:45;stroke-linecap:round;stroke-linejoin:round;stroke-miterlimit:4;stroke-opacity:1;stroke-dasharray:none;stroke-dashoffset:0;marker-start:none"
       d="m -556.34682,177.89178 c 1.32791,-8.01533 66.1577,-114.513624 116.94142,-63.86215 36.35481,36.26013 120.54193,104.50594 198.06594,25.0276 35.1729,-36.05968 123.1287,-61.632024 242.2862,57.01831 57.6383,57.39308 101.6227,56.80691 173.7746,-16.22537 74.2253,-75.13108 80.981,-67.88329 155.6568,6.14212 67.0698,66.48559 154.99036,22.07242 203.17136,-88.284257"
       id="path3012-1-0-9-4-8-7-15-2-2-1-6"
       inkscape:connector-curvature="0"
       sodipodi:nodetypes="csssssc" />
    <path
       style="fill:none;stroke:#396fc9;stroke-width:20;stroke-linecap:round;stroke-linejoin:round;stroke-miterlimit:4;stroke-opacity:1;stroke-dasharray:none;stroke-dashoffset:0;marker-start:none"
       d="m -561.34649,152.15516 c 1.32791,-8.01533 66.15771,-114.51362 116.94142,-63.862153 36.3548,36.260133 120.54192,104.505943 198.06593,25.027603 35.1729,-36.059683 123.1287,-61.632023 242.2862,57.01831 57.6383,57.39308 101.6227,56.80691 173.7746,-16.22537 74.2253,-75.131083 80.981,-67.883293 155.6568,6.14212 67.0698,66.48559 154.99044,22.07242 203.17144,-88.284263"
       id="path3012-1-0-9-4-8-7-15-2"
       inkscape:connector-curvature="0"
       sodipodi:nodetypes="csssssc" />
    <path
       style="fill:none;stroke:#376dc7;stroke-width:25;stroke-linecap:round;stroke-linejoin:round;stroke-miterlimit:4;stroke-opacity:1;stroke-dasharray:none;stroke-dashoffset:0;marker-start:none"
       d="m -547.77397,211.63631 c 1.32791,-8.01533 66.15772,-114.513617 116.94143,-63.86215 36.3548,36.26013 120.54192,104.50594 198.06593,25.0276 35.1729,-36.05968 123.1287,-61.63202 242.2862,57.01831 57.6383,57.39308 101.6227,56.80691 173.7746,-16.22537 74.2253,-75.13108 80.981,-67.88329 155.6568,6.14212 67.0698,66.48559 154.99041,22.07242 203.17141,-88.28426"
       id="path3012-1-0-9-4-8-7-15"
       inkscape:connector-curvature="0"
       sodipodi:nodetypes="csssssc" />
  </g>
</svg>
